<svg width="1440" height="1024" viewBox="0 0 1440 1024" fill="none" xmlns="http://www.w3.org/2000/svg">
<g clip-path="url(#clip0_103_2)">
<rect width="1440" height="1024" fill="white"/>
<rect x="0.927734" y="436.059" width="480.65" height="19.8334" fill="#19237E"/>
<rect width="480.65" height="19.8334" transform="matrix(1 0 0 -1 0.927734 588.941)" fill="#19237E"/>
<line x1="0.927734" y1="462.332" x2="481.583" y2="462.332" stroke="#19237E" stroke-width="2.82071"/>
<line y1="-1.41036" x2="480.655" y2="-1.41036" transform="matrix(1 0 0 -1 0.927734 561.257)" stroke="#19237E" stroke-width="2.82071"/>
<path d="M128.838 537.085L53.5999 488.121L-21.6387 537.085" stroke="#19237E" stroke-width="11.2829"/>
<path d="M92.3309 543.49L53.6005 518.285L14.8701 543.49" stroke="#19237E" stroke-width="5.80805"/>
<path d="M242.554 543.49L203.823 518.285L165.093 543.49" stroke="#19237E" stroke-width="5.80805"/>
<path d="M392.777 543.49L354.047 518.285L315.316 543.49" stroke="#19237E" stroke-width="5.80805"/>
<path d="M543 543.49L504.269 518.285L465.539 543.49" stroke="#19237E" stroke-width="5.80805"/>
<path d="M17.4608 481.51L-21.2696 506.715L-60 481.51" stroke="#19237E" stroke-width="5.80805"/>
<path d="M167.683 481.51L128.953 506.715L90.2227 481.51" stroke="#19237E" stroke-width="5.80805"/>
<path d="M317.907 481.51L279.177 506.715L240.446 481.51" stroke="#19237E" stroke-width="5.80805"/>
<path d="M468.13 481.51L429.399 506.715L390.669 481.51" stroke="#19237E" stroke-width="5.80805"/>
<path d="M279.109 537.085L203.87 488.121L128.632 537.085" stroke="#19237E" stroke-width="11.2829"/>
<path d="M53.601 488.121L128.84 537.085L204.078 488.121" stroke="#19237E" stroke-width="11.2829"/>
<path d="M429.17 537.085L353.932 488.121L278.693 537.085" stroke="#19237E" stroke-width="11.2829"/>
<path d="M203.663 488.121L278.901 537.085L354.14 488.121" stroke="#19237E" stroke-width="11.2829"/>
<path d="M353.724 488.121L428.963 537.085L504.201 488.121" stroke="#19237E" stroke-width="11.2829"/>
<rect x="451.928" y="436" width="480.65" height="19.8334" fill="#19237E"/>
<rect width="480.65" height="19.8334" transform="matrix(1 0 0 -1 451.928 588.883)" fill="#19237E"/>
<line x1="451.928" y1="462.274" x2="932.583" y2="462.274" stroke="#19237E" stroke-width="2.82071"/>
<line y1="-1.41036" x2="480.655" y2="-1.41036" transform="matrix(1 0 0 -1 451.928 561.199)" stroke="#19237E" stroke-width="2.82071"/>
<path d="M579.838 537.027L504.6 488.063L429.361 537.027" stroke="#19237E" stroke-width="11.2829"/>
<path d="M543.331 543.431L504.601 518.226L465.87 543.431" stroke="#19237E" stroke-width="5.80805"/>
<path d="M693.554 543.431L654.823 518.226L616.093 543.431" stroke="#19237E" stroke-width="5.80805"/>
<path d="M843.777 543.431L805.047 518.226L766.316 543.431" stroke="#19237E" stroke-width="5.80805"/>
<path d="M994 543.431L955.269 518.226L916.539 543.431" stroke="#19237E" stroke-width="5.80805"/>
<path d="M468.461 481.452L429.73 506.657L391 481.452" stroke="#19237E" stroke-width="5.80805"/>
<path d="M618.683 481.452L579.953 506.657L541.223 481.452" stroke="#19237E" stroke-width="5.80805"/>
<path d="M768.907 481.452L730.177 506.657L691.446 481.452" stroke="#19237E" stroke-width="5.80805"/>
<path d="M919.13 481.452L880.399 506.657L841.669 481.452" stroke="#19237E" stroke-width="5.80805"/>
<path d="M730.109 537.027L654.87 488.063L579.632 537.027" stroke="#19237E" stroke-width="11.2829"/>
<path d="M504.601 488.063L579.84 537.027L655.078 488.063" stroke="#19237E" stroke-width="11.2829"/>
<path d="M880.17 537.027L804.932 488.063L729.693 537.027" stroke="#19237E" stroke-width="11.2829"/>
<path d="M654.663 488.063L729.901 537.027L805.14 488.063" stroke="#19237E" stroke-width="11.2829"/>
<path d="M804.724 488.063L879.963 537.027L955.201 488.063" stroke="#19237E" stroke-width="11.2829"/>
<rect x="902.928" y="436.059" width="480.65" height="19.8334" fill="#19237E"/>
<rect width="480.65" height="19.8334" transform="matrix(1 0 0 -1 902.928 588.941)" fill="#19237E"/>
<line x1="902.928" y1="462.332" x2="1383.58" y2="462.332" stroke="#19237E" stroke-width="2.82071"/>
<line y1="-1.41036" x2="480.655" y2="-1.41036" transform="matrix(1 0 0 -1 902.928 561.257)" stroke="#19237E" stroke-width="2.82071"/>
<path d="M1030.84 537.085L955.6 488.121L880.361 537.085" stroke="#19237E" stroke-width="11.2829"/>
<path d="M994.331 543.49L955.601 518.285L916.87 543.49" stroke="#19237E" stroke-width="5.80805"/>
<path d="M1144.55 543.49L1105.82 518.285L1067.09 543.49" stroke="#19237E" stroke-width="5.80805"/>
<path d="M1294.78 543.49L1256.05 518.285L1217.32 543.49" stroke="#19237E" stroke-width="5.80805"/>
<path d="M1445 543.49L1406.27 518.285L1367.54 543.49" stroke="#19237E" stroke-width="5.80805"/>
<path d="M919.461 481.51L880.73 506.715L842 481.51" stroke="#19237E" stroke-width="5.80805"/>
<path d="M1069.68 481.51L1030.95 506.715L992.223 481.51" stroke="#19237E" stroke-width="5.80805"/>
<path d="M1219.91 481.51L1181.18 506.715L1142.45 481.51" stroke="#19237E" stroke-width="5.80805"/>
<path d="M1370.13 481.51L1331.4 506.715L1292.67 481.51" stroke="#19237E" stroke-width="5.80805"/>
<path d="M1181.11 537.085L1105.87 488.121L1030.63 537.085" stroke="#19237E" stroke-width="11.2829"/>
<path d="M955.601 488.121L1030.84 537.085L1106.08 488.121" stroke="#19237E" stroke-width="11.2829"/>
<path d="M1331.17 537.085L1255.93 488.121L1180.69 537.085" stroke="#19237E" stroke-width="11.2829"/>
<path d="M1105.66 488.121L1180.9 537.085L1256.14 488.121" stroke="#19237E" stroke-width="11.2829"/>
<path d="M1255.72 488.121L1330.96 537.085L1406.2 488.121" stroke="#19237E" stroke-width="11.2829"/>
<rect x="1353.93" y="436" width="103.071" height="19.8334" fill="#19237E"/>
<rect width="103.071" height="19.8334" transform="matrix(1 0 0 -1 1353.93 588.883)" fill="#19237E"/>
<line x1="1353.93" y1="462.274" x2="1457" y2="462.274" stroke="#19237E" stroke-width="2.82071"/>
<line y1="-1.41036" x2="103.073" y2="-1.41036" transform="matrix(1 0 0 -1 1353.93 561.199)" stroke="#19237E" stroke-width="2.82071"/>
<path d="M1481.84 537.027L1406.6 488.063L1331.36 537.027" stroke="#19237E" stroke-width="11.2829"/>
<path d="M1445.33 543.431L1406.6 518.226L1367.87 543.431" stroke="#19237E" stroke-width="5.80805"/>
<path d="M1370.46 481.452L1331.73 506.657L1293 481.452" stroke="#19237E" stroke-width="5.80805"/>
<path d="M1406.6 488.063L1481.84 537.027L1557.08 488.063" stroke="#19237E" stroke-width="11.2829"/>
<rect x="266" y="236" width="907" height="552" fill="#ABBAE3"/>
<path d="M441.163 167.746V136.224H430.655V130.97H462.178V136.224H451.67V167.746H441.163ZM472.685 167.746V162.493H467.431V130.97H477.939V162.493H493.7V130.97H504.208V162.493H498.954V167.746H472.685ZM509.461 167.746V130.97H540.984V136.224H546.237V151.985H535.73V157.239H540.984V162.493H546.237V167.746H530.476V162.493H525.223V157.239H519.969V167.746H509.461ZM519.969 151.985H530.476V146.731H535.73V136.224H519.969V151.985ZM556.745 167.746V162.493H567.252V136.224H556.745V130.97H588.267V136.224H577.76V162.493H588.267V167.746H556.745ZM635.551 167.746V141.478H640.805V136.224H646.058V130.97H661.82V136.224H667.073V141.478H672.327V167.746H661.82V157.239H646.058V167.746H635.551ZM646.058 151.985H661.82V141.478H656.566V136.224H651.312V141.478H646.058V151.985ZM677.581 167.746V130.97H703.85V136.224H709.103V141.478H714.357V157.239H709.103V162.493H703.85V167.746H677.581ZM688.088 162.493H698.596V157.239H703.85V141.478H698.596V136.224H688.088V162.493ZM735.372 167.746V162.493H730.118V157.239H724.865V151.985H719.611V130.97H730.118V146.731H735.372V151.985H740.626V146.731H745.879V130.97H756.387V151.985H751.133V157.239H745.879V162.493H740.626V167.746H735.372ZM761.641 167.746V130.97H798.417V136.224H772.148V146.731H793.163V151.985H772.148V162.493H798.417V167.746H761.641ZM803.671 167.746V130.97H814.178V136.224H819.432V141.478H824.686V146.731H829.939V130.97H840.447V167.746H829.939V157.239H824.686V151.985H819.432V146.731H814.178V167.746H803.671ZM861.462 167.746V136.224H850.954V130.97H882.477V136.224H871.969V167.746H861.462ZM892.984 167.746V162.493H887.73V130.97H898.238V162.493H913.999V130.97H924.507V162.493H919.253V167.746H892.984ZM929.76 167.746V130.97H961.283V136.224H966.536V151.985H956.029V157.239H961.283V162.493H966.536V167.746H950.775V162.493H945.521V157.239H940.268V167.746H929.76ZM940.268 151.985H950.775V146.731H956.029V136.224H940.268V151.985ZM971.79 167.746V130.97H1008.57V136.224H982.298V146.731H1003.31V151.985H982.298V162.493H1008.57V167.746H971.79Z" fill="#19237E"/>
<path d="M144.849 127.139C127.013 92.2151 126.578 77.7408 129.789 54.0513C104.624 73.6893 97.4204 87.6624 98.3386 118.502C91.721 112.152 89.061 107.537 85.4928 98.1256C83.3346 97.9066 62.085 130.643 65.3383 154.824C69.6887 187.16 95.4437 199.149 123.809 198.012C150.735 196.933 175.075 179.408 177.628 154.824C179.656 135.294 165.225 106.099 165.225 106.099C158.758 116.971 154.635 122.181 144.849 127.139Z" fill="#FF9737"/>
<rect x="65" y="128.903" width="12.8994" height="39.3598" fill="#FF9737"/>
<rect width="12.8994" height="39.3598" transform="matrix(-1 0 0 1 184.402 137.503)" fill="#FF9737"/>
<rect x="68.3076" y="117.658" width="12.8994" height="39.3598" fill="#FF9737"/>
<rect width="12.8994" height="39.3598" transform="matrix(-1 0 0 1 181.095 126.257)" fill="#FF9737"/>
<rect x="68.3076" y="143.126" width="12.8994" height="39.3598" fill="#FF9737"/>
<rect width="12.8994" height="39.3598" transform="matrix(-1 0 0 1 178.118 152.056)" fill="#FF9737"/>
<rect x="74.5918" y="154.041" width="12.8994" height="39.3598" fill="#FF9737"/>
<rect width="12.8994" height="39.3598" transform="matrix(-1 0 0 1 168.195 158.671)" fill="#FF9737"/>
<rect x="80.876" y="162.64" width="77.3965" height="39.3598" fill="#FF9737"/>
<rect x="71.6152" y="106.412" width="12.8994" height="39.3598" fill="#FF9737"/>
<rect width="12.8994" height="39.3598" transform="matrix(-1 0 0 1 177.787 115.012)" fill="#FF9737"/>
<rect x="78.2305" y="97.4816" width="12.8994" height="39.3598" fill="#FF9737"/>
<rect x="86.8301" y="106.081" width="12.8994" height="39.3598" fill="#FF9737"/>
<rect width="12.8994" height="39.3598" transform="matrix(-1 0 0 1 171.172 106.081)" fill="#FF9737"/>
<rect width="12.8994" height="39.3598" transform="matrix(-1 0 0 1 163.564 112.696)" fill="#FF9737"/>
<rect width="12.8994" height="39.3598" transform="matrix(-1 0 0 1 155.957 119.311)" fill="#FF9737"/>
<rect width="12.8994" height="39.3598" transform="matrix(-1 0 0 1 142.728 103.766)" fill="#FF9737"/>
<rect width="12.8994" height="39.3598" transform="matrix(-1 0 0 1 136.112 89.5435)" fill="#FF9737"/>
<rect width="12.8994" height="39.3598" transform="matrix(-1 0 0 1 131.812 52.1683)" fill="#FF9737"/>
<rect width="10.5" height="10.5" transform="matrix(-1 0 0 1 89.8145 70)" fill="#FF9737"/>
<rect width="11.5764" height="13.8917" transform="matrix(-1 0 0 1 141.735 31)" fill="#FF9737"/>
<rect width="6.72133" height="7.28144" transform="matrix(-1 0 0 1 154.688 91.5)" fill="#FF9737"/>
<rect width="12.8994" height="39.3598" transform="matrix(-1 0 0 1 121.559 58.1219)" fill="#FF9737"/>
<rect width="12.8994" height="39.3598" transform="matrix(-1 0 0 1 115.274 63.7447)" fill="#FF9737"/>
<rect width="12.8994" height="39.3598" transform="matrix(-1 0 0 1 108.99 79.9517)" fill="#FF9737"/>
<path d="M134.116 152.086C124.588 133.429 124.356 125.696 126.071 113.041C112.627 123.532 108.779 130.996 109.269 147.471C105.734 144.079 104.313 141.614 102.407 136.586C101.254 136.469 89.9022 153.957 91.6401 166.875C93.9642 184.15 107.723 190.554 122.876 189.947C137.261 189.371 150.263 180.008 151.627 166.875C152.71 156.442 145.001 140.845 145.001 140.845C141.547 146.653 139.344 149.437 134.116 152.086Z" fill="#FBF33F"/>
<rect x="91.46" y="153.028" width="6.89108" height="21.0266" fill="#FBF33F"/>
<rect width="6.89108" height="21.0266" transform="matrix(-1 0 0 1 155.247 157.622)" fill="#FBF33F"/>
<rect x="93.2266" y="147.02" width="6.89108" height="21.0266" fill="#FBF33F"/>
<rect width="6.89108" height="21.0266" transform="matrix(-1 0 0 1 153.479 151.614)" fill="#FBF33F"/>
<rect x="93.2266" y="160.626" width="6.89108" height="21.0266" fill="#FBF33F"/>
<rect width="6.89108" height="21.0266" transform="matrix(-1 0 0 1 151.89 165.396)" fill="#FBF33F"/>
<rect x="96.584" y="166.457" width="6.89108" height="21.0266" fill="#FBF33F"/>
<rect width="6.89108" height="21.0266" transform="matrix(-1 0 0 1 146.589 168.93)" fill="#FBF33F"/>
<rect x="99.9414" y="171.051" width="41.3465" height="21.0266" fill="#FBF33F"/>
<rect x="94.9941" y="141.013" width="6.89108" height="21.0266" fill="#FBF33F"/>
<rect width="6.89108" height="21.0266" transform="matrix(-1 0 0 1 151.713 145.607)" fill="#FBF33F"/>
<rect x="98.5283" y="136.242" width="6.89108" height="21.0266" fill="#FBF33F"/>
<rect x="103.122" y="140.836" width="6.89108" height="21.0266" fill="#FBF33F"/>
<rect width="6.89108" height="21.0266" transform="matrix(-1 0 0 1 148.179 140.836)" fill="#FBF33F"/>
<rect width="6.89108" height="21.0266" transform="matrix(-1 0 0 1 144.115 144.37)" fill="#FBF33F"/>
<rect width="6.89108" height="21.0266" transform="matrix(-1 0 0 1 140.051 147.904)" fill="#FBF33F"/>
<rect width="6.89108" height="21.0266" transform="matrix(-1 0 0 1 132.983 139.599)" fill="#FBF33F"/>
<rect width="6.89108" height="21.0266" transform="matrix(-1 0 0 1 129.449 132.001)" fill="#FBF33F"/>
<rect width="6.89108" height="21.0266" transform="matrix(-1 0 0 1 127.152 112.035)" fill="#FBF33F"/>
<rect width="6.89108" height="21.0266" transform="matrix(-1 0 0 1 121.675 115.215)" fill="#FBF33F"/>
<rect width="6.89108" height="21.0266" transform="matrix(-1 0 0 1 118.317 118.219)" fill="#FBF33F"/>
<rect width="6.89108" height="21.0266" transform="matrix(-1 0 0 1 114.961 126.877)" fill="#FBF33F"/>
</g>
<defs>
<clipPath id="clip0_103_2">
<rect width="1440" height="1024" fill="white"/>
</clipPath>
</defs>
</svg>
